<svg xmlns="http://www.w3.org/2000/svg" viewBox="0 0 50.844 76.584">
  <defs>
    <style>
      .cls-1 {
        fill: #f7f1e6;
      }

      .cls-2 {
        fill: #e0dcd3;
      }

      .cls-3 {
        fill: #77a7a2;
      }

      .cls-4 {
        fill: #dec8ae;
      }

      .cls-5 {
        fill: #81b6b2;
      }

      .cls-6 {
        fill: #e74424;
      }
    </style>
  </defs>
  <g id="icon-presupuesto" transform="translate(0 0)">
    <g id="Group_10" data-name="Group 10" transform="translate(0)">
      <path id="Path_81" data-name="Path 81" class="cls-1" d="M113.287,28.746a2.17,2.17,0,0,1-2.154,1.912h-5.169a2.72,2.72,0,0,1-2.71,2.5H79.8a2.719,2.719,0,0,1-2.71-2.5H70.885a2.17,2.17,0,0,1-2.154-1.912,5.059,5.059,0,0,0-3.144,4.58V94.618A5.305,5.305,0,0,0,71.1,99.689h33.637V93.506a5.305,5.305,0,0,1,5.071-5.512h6.624V33.326A5.06,5.06,0,0,0,113.287,28.746Zm-34.865,51.5a1.38,1.38,0,0,1-1.38,1.38H72.49a1.38,1.38,0,0,1-1.379-1.38V75.689a1.38,1.38,0,0,1,1.379-1.38h4.553a1.38,1.38,0,0,1,1.38,1.38v4.552Zm0-10.968a1.38,1.38,0,0,1-1.38,1.379H72.49a1.379,1.379,0,0,1-1.379-1.379V64.721a1.379,1.379,0,0,1,1.379-1.379h4.553a1.38,1.38,0,0,1,1.38,1.379v4.553Zm0-10.967a1.38,1.38,0,0,1-1.38,1.379H72.49a1.379,1.379,0,0,1-1.379-1.379V53.754a1.379,1.379,0,0,1,1.379-1.379h4.553a1.38,1.38,0,0,1,1.38,1.379v4.553Zm0-10.968a1.38,1.38,0,0,1-1.38,1.379H72.49a1.379,1.379,0,0,1-1.379-1.379V42.787a1.379,1.379,0,0,1,1.379-1.379h4.553a1.38,1.38,0,0,1,1.38,1.379v4.553ZM95.876,90.465a1.241,1.241,0,0,1-1.241,1.241h-1.97v1.97a1.241,1.241,0,0,1-1.241,1.241h-.83a1.241,1.241,0,0,1-1.241-1.241v-1.97h-1.97a1.241,1.241,0,0,1-1.241-1.241v-.83a1.241,1.241,0,0,1,1.241-1.241h1.97v-1.97a1.241,1.241,0,0,1,1.241-1.241h.83a1.241,1.241,0,0,1,1.241,1.241v1.97h1.97a1.241,1.241,0,0,1,1.241,1.241Zm15.238-9.176h-29.2a.831.831,0,1,1,0-1.662h29.2a.831.831,0,1,1,0,1.662Zm0-10.968h-29.2a.831.831,0,1,1,0-1.662h29.2a.831.831,0,1,1,0,1.662Zm0-10.968h-29.2a.831.831,0,1,1,0-1.662h29.2a.831.831,0,1,1,0,1.662Zm0-10.967h-29.2a.831.831,0,0,1,0-1.662h29.2a.831.831,0,0,1,0,1.662Z" transform="translate(-65.587 -23.105)"/>
      <path id="Path_82" data-name="Path 82" class="cls-2" d="M265.1,336.2v6.183l11.7-11.7h-6.624A5.306,5.306,0,0,0,265.1,336.2Z" transform="translate(-225.951 -265.798)"/>
      <path id="Path_83" data-name="Path 83" class="cls-3" d="M270.364,21.711h5.365a2.17,2.17,0,0,0,2.154-1.912,2.2,2.2,0,0,0,.017-.258,2.17,2.17,0,0,0-2.17-2.171h-5.354S270.37,21.638,270.364,21.711Z" transform="translate(-230.182 -13.962)"/>
      <path id="Path_84" data-name="Path 84" class="cls-3" d="M83.694,21.711h6.4c-.006-.073-.011-4.341-.011-4.341H83.694a2.17,2.17,0,0,0,0,4.341Z" transform="translate(-78.397 -13.962)"/>
      <path id="Path_85" data-name="Path 85" class="cls-4" d="M99.67,93.27H95.117a1.379,1.379,0,0,0-1.379,1.379V99.2a1.379,1.379,0,0,0,1.379,1.379H99.67a1.38,1.38,0,0,0,1.38-1.379V94.649A1.38,1.38,0,0,0,99.67,93.27Z" transform="translate(-88.214 -74.968)"/>
      <path id="Path_86" data-name="Path 86" class="cls-4" d="M174.583,120.368h-29.2a.831.831,0,0,0,0,1.662h29.2a.831.831,0,0,0,0-1.662Z" transform="translate(-129.056 -96.749)"/>
      <path id="Path_87" data-name="Path 87" class="cls-4" d="M99.67,149.162H95.117a1.379,1.379,0,0,0-1.379,1.379v4.553a1.379,1.379,0,0,0,1.379,1.379H99.67a1.379,1.379,0,0,0,1.38-1.379v-4.553A1.38,1.38,0,0,0,99.67,149.162Z" transform="translate(-88.214 -119.893)"/>
      <path id="Path_88" data-name="Path 88" class="cls-4" d="M174.583,176.262h-29.2a.831.831,0,0,0,0,1.662h29.2a.831.831,0,0,0,0-1.662Z" transform="translate(-129.056 -141.675)"/>
      <path id="Path_89" data-name="Path 89" class="cls-4" d="M99.67,205.055H95.117a1.379,1.379,0,0,0-1.379,1.379v4.553a1.379,1.379,0,0,0,1.379,1.379H99.67a1.38,1.38,0,0,0,1.38-1.379v-4.553A1.38,1.38,0,0,0,99.67,205.055Z" transform="translate(-88.214 -164.818)"/>
      <path id="Path_90" data-name="Path 90" class="cls-4" d="M174.583,232.154h-29.2a.831.831,0,0,0,0,1.662h29.2a.831.831,0,0,0,0-1.662Z" transform="translate(-129.056 -186.6)"/>
      <path id="Path_91" data-name="Path 91" class="cls-4" d="M99.67,260.947H95.117a1.379,1.379,0,0,0-1.379,1.38v4.552a1.38,1.38,0,0,0,1.379,1.38H99.67a1.38,1.38,0,0,0,1.38-1.38v-4.552A1.38,1.38,0,0,0,99.67,260.947Z" transform="translate(-88.214 -209.743)"/>
      <path id="Path_92" data-name="Path 92" class="cls-4" d="M174.583,288.047h-29.2a.831.831,0,0,0,0,1.662h29.2a.831.831,0,1,0,0-1.662Z" transform="translate(-129.056 -231.525)"/>
      <path id="Path_93" data-name="Path 93" class="cls-5" d="M124.155,7.528c0,.075.005.148.011.221a2.719,2.719,0,0,0,2.71,2.5h23.455a2.72,2.72,0,0,0,2.71-2.5c.006-.073.011-.147.011-.221V2.721A2.721,2.721,0,0,0,150.331,0H126.876a2.721,2.721,0,0,0-2.721,2.721V7.528Z" transform="translate(-112.663)"/>
      <path id="Path_94" data-name="Path 94" class="cls-6" d="M178.835,319.574h-1.97V317.6a1.241,1.241,0,0,0-1.241-1.241h-.83a1.241,1.241,0,0,0-1.241,1.241v1.97h-1.97a1.241,1.241,0,0,0-1.241,1.241v.83a1.241,1.241,0,0,0,1.241,1.241h1.97v1.97a1.241,1.241,0,0,0,1.241,1.241h.83a1.241,1.241,0,0,0,1.241-1.241v-1.97h1.97a1.241,1.241,0,0,0,1.241-1.241v-.83A1.241,1.241,0,0,0,178.835,319.574Z" transform="translate(-149.787 -254.285)"/>
    </g>
  </g>
</svg>
