<svg xmlns="http://www.w3.org/2000/svg" viewBox="0 0 53.689 77.764">
  <defs>
    <style>
      .cls-1 {
        fill: none;
      }

      .cls-2 {
        fill: #f7f1e6;
      }

      .cls-3 {
        fill: #fff;
      }

      .cls-4 {
        fill: #dec8ae;
      }

      .cls-5 {
        fill: #f3dbbd;
      }

      .cls-6 {
        fill: #2b3237;
      }

      .cls-7 {
        fill: #664b3a;
      }

      .cls-8 {
        fill: #e74424;
      }

      .cls-9 {
        fill: #e0dcd3;
      }

      .cls-10 {
        fill: #1b2327;
      }

      .cls-11 {
        fill: #e6a123;
      }

      .cls-12 {
        fill: #c3bfb8;
      }
    </style>
  </defs>
  <g id="icon-nurse" transform="translate(-65.621)">
    <g id="Layer_2_47_" transform="translate(65.621)">
      <g id="Group_7" data-name="Group 7">
        <path id="Path_40" data-name="Path 40" class="cls-1" d="M261.818,263.927l.8.792s.042.408.1,1.031a36.849,36.849,0,0,1,4.185,1.574A4.4,4.4,0,0,0,265.9,265.7C264.685,264.545,264.185,264.3,261.818,263.927Z" transform="translate(-225.828 -215.513)"/>
        <path id="Path_41" data-name="Path 41" class="cls-2" d="M176.076,294.843l.118.095-1.557-3.6c-.513.374-.954.692-1.269.916A4.874,4.874,0,0,1,176.076,294.843Z" transform="translate(-153.603 -237.894)"/>
        <path id="Path_42" data-name="Path 42" class="cls-2" d="M155.965,276.763c.1-1.234.23-2.584.315-3.456q-.306.089-.618.187c.028.323.1.728.147,1.235C155.867,275.3,155.934,275.98,155.965,276.763Z" transform="translate(-139.145 -223.173)"/>
        <path id="Path_43" data-name="Path 43" class="cls-2" d="M111.023,277.6c-.982-.544-1.916-1.028-2.811-1.463a15.981,15.981,0,0,1,.595,4.352c0,.016,0,.031,0,.046a5.043,5.043,0,1,1-1.435-.208h.026a13.884,13.884,0,0,0-.7-4.9,36.929,36.929,0,0,0-4.185-1.574c.092.94.228,2.371.328,3.628.166,2.089-1.659,1.359-2.529.8-.124-.08-.409-.282-.8-.561l-6.542,13.957-2.377-5.5a1.1,1.1,0,0,1-.207.245c.014.222.022.446.022.672a9.15,9.15,0,0,1-1.306,4.879,5.179,5.179,0,0,1-1.769,1.74c0,.04.007.081.007.123a1.1,1.1,0,0,1-1.072,1.13c-.592,0-1.607-.506-1.607-1.13s1.015-1.13,1.607-1.13a1.026,1.026,0,0,1,.577.179c1.722-.947,2.636-3.426,2.636-5.79,0-.149,0-.3-.012-.444a1.094,1.094,0,0,1-.807-.938c-.372-2.969-2.694-4.657-6.365-4.63h-.026c-3.38.125-5.51,1.79-5.864,4.621a1.093,1.093,0,0,1-.806.938c-.007.147-.012.294-.012.443,0,2.364.914,4.843,2.635,5.79a1.027,1.027,0,0,1,.577-.179c.592,0,1.608.506,1.608,1.131s-1.016,1.13-1.608,1.13a1.1,1.1,0,0,1-1.072-1.13c0-.042,0-.083.007-.123a5.182,5.182,0,0,1-1.769-1.739,9.154,9.154,0,0,1-1.306-4.879c0-.226.008-.45.022-.672a1.143,1.143,0,0,1-.372-1,7.187,7.187,0,0,1,2.348-4.591.285.285,0,0,1-.012-.083c0-.841,1.69-2.779,4.384-3.295-.025-.807-.093-1.5-.156-2.126-.033-.329-.064-.634-.084-.92a47.8,47.8,0,0,0-6.887,3.2c-3.532,1.957-8.287,3.054-8.287,8.283v10.783c0,2.7,2.758,4.721,6.645,4.721h40.4c3.887,0,6.645-2.018,6.645-4.721V285.885C119.31,280.656,114.555,279.559,111.023,277.6Z" transform="translate(-65.621 -223.625)"/>
        <path id="Path_44" data-name="Path 44" class="cls-3" d="M186.266,267.387h-.009l-.011.008c-.227.168-3.747,2.774-5.959,4.385l1.557,3.6c.062.051.125.1.185.154a7.18,7.18,0,0,1,2.362,4.6,1.158,1.158,0,0,1-.164.756l2.377,5.5,6.542-13.957c-1.963-1.412-6.606-4.85-6.869-5.044Z" transform="translate(-159.253 -218.339)"/>
        <path id="Path_45" data-name="Path 45" class="cls-4" d="M186.091,238.133l.015.009.015-.009,5.976-3.587.019.018v-2.988a11.305,11.305,0,0,1-12.019,0v2.988l.018-.018Z" transform="translate(-159.098 -189.097)"/>
        <path id="Path_46" data-name="Path 46" class="cls-4" d="M212.836,267.37l0,0h.009Z" transform="translate(-185.827 -218.325)"/>
        <path id="Path_47" data-name="Path 47" class="cls-5" d="M153.289,114.1c4.4-2.6,7.779-7.788,8.977-13.157a19.562,19.562,0,0,1-.924-2.906,5.26,5.26,0,0,0-.091.961c.061,1.8-1.4,3.766-1.414-.051-.015-3.3-5.562-11.029-5.91-11.237A30.922,30.922,0,0,1,143.879,92.7c-.6.138-1.623.059-.9-.551a3.967,3.967,0,0,0,1.16-1.913c.257-.8-3.109,2.072-5.584,3.37-.629.33-1.94.9-.961-.271a2.615,2.615,0,0,0,.683-1.757c-3.518,1.924-3.458,4.548-3.453,7.545,0,2.617-1.415,3.407-1.582,1.1a3.808,3.808,0,0,1-.694,1.756c1.378,5,4.6,9.7,8.722,12.131a11.306,11.306,0,0,0,12.019,0Z" transform="translate(-120.271 -71.624)"/>
        <path id="Path_48" data-name="Path 48" class="cls-6" d="M259.671,259.525a4.4,4.4,0,0,1,1.007,1.626,13.883,13.883,0,0,1,.7,4.9,5.046,5.046,0,0,1,1.409.208c0-.016,0-.031,0-.046a15.974,15.974,0,0,0-.595-4.352,7.085,7.085,0,0,0-2.309-3.978c-2.075-1.376-4.5-1.322-5.692-1.51l1.4,1.387C257.959,258.131,258.458,258.372,259.671,259.525Z" transform="translate(-219.602 -209.341)"/>
        <path id="Path_49" data-name="Path 49" class="cls-7" d="M125.833,70.713c.167,2.31,1.586,1.52,1.582-1.1-.005-3-.065-5.62,3.453-7.545a2.616,2.616,0,0,1-.683,1.757c-.978,1.166.333.6.961.271,2.475-1.3,5.841-4.167,5.584-3.37a3.967,3.967,0,0,1-1.16,1.913c-.723.61.3.689.9.551a30.923,30.923,0,0,0,10.048-4.982c.348.207,5.9,7.94,5.91,11.237.018,3.817,1.474,1.849,1.414.051a5.26,5.26,0,0,1,.091-.961,19.538,19.538,0,0,0,.924,2.906c.663,1.446,1.125.6,1.642-2.387a22.059,22.059,0,0,0-1.428-10.482,19.218,19.218,0,0,0-3.976-6.167l-.125.419a4.363,4.363,0,0,1-4.493,3.164H133.952a4.363,4.363,0,0,1-4.493-3.164l-.369-1.243a14.547,14.547,0,0,0-3.828,4.927c-1.914,4-1.876,9.475-1.724,11.633.249,3.515.962,4.958,1.6,4.325A3.811,3.811,0,0,0,125.833,70.713Z" transform="translate(-112.862 -42.121)"/>
        <path id="Path_50" data-name="Path 50" class="cls-2" d="M151.746,13.869H164.27a4.363,4.363,0,0,0,4.493-3.164l.125-.419c.58-1.95,1.658-5.588,1.658-5.588.715-2.129-.472-4.7-2.953-4.7H148.424c-2.481,0-3.668,2.569-2.953,4.7,0,0,.818,2.763,1.413,4.764l.369,1.243A4.363,4.363,0,0,0,151.746,13.869Zm3.66-8.123h1.414V4.332a.891.891,0,0,1,.891-.891h.6a.891.891,0,0,1,.891.891V5.746h1.414a.891.891,0,0,1,.891.891v.6a.89.89,0,0,1-.891.891H159.2V9.536a.891.891,0,0,1-.891.891h-.6a.891.891,0,0,1-.891-.891V8.123h-1.414a.891.891,0,0,1-.891-.891v-.6A.891.891,0,0,1,155.406,5.746Z" transform="translate(-130.655)"/>
        <path id="Path_51" data-name="Path 51" class="cls-8" d="M195.691,22.55a.891.891,0,0,0,.891.891H198v1.414a.891.891,0,0,0,.891.891h.6a.891.891,0,0,0,.891-.891V23.441h1.414a.891.891,0,0,0,.891-.891v-.6a.891.891,0,0,0-.891-.891h-1.414V19.65a.891.891,0,0,0-.891-.891h-.6a.891.891,0,0,0-.891.891v1.414h-1.414a.891.891,0,0,0-.891.891v.6Z" transform="translate(-171.831 -15.318)"/>
        <path id="Path_52" data-name="Path 52" class="cls-9" d="M270.568,308.873a5.83,5.83,0,1,0,.027,0Zm4.17,5.088a4.17,4.17,0,1,1-4.17-4.17A4.17,4.17,0,0,1,274.738,313.961Z" transform="translate(-228.819 -252.215)"/>
        <path id="Path_53" data-name="Path 53" class="cls-6" d="M270.524,318.08a4.163,4.163,0,1,0,4.163-4.163A4.163,4.163,0,0,0,270.524,318.08Zm6.135,0a1.972,1.972,0,1,1-1.972-1.972A1.972,1.972,0,0,1,276.659,318.08Z" transform="translate(-232.937 -256.333)"/>
        <circle id="Ellipse_2" data-name="Ellipse 2" class="cls-10" cx="1.973" cy="1.973" r="1.973" transform="translate(39.777 59.774)"/>
        <path id="Path_54" data-name="Path 54" class="cls-6" d="M115.48,342.565a1.026,1.026,0,0,1-.538-.249c-.014.222-.022.446-.022.672a9.154,9.154,0,0,0,1.306,4.879,5.179,5.179,0,0,0,1.769,1.739,1.139,1.139,0,0,1,.488-.829c-1.721-.947-2.635-3.426-2.635-5.79,0-.149,0-.3.012-.443A1.006,1.006,0,0,1,115.48,342.565Z" transform="translate(-105.877 -279.523)"/>
        <path id="Path_55" data-name="Path 55" class="cls-6" d="M183.958,342.6c.007.147.012.294.012.444,0,2.364-.914,4.843-2.636,5.79a1.138,1.138,0,0,1,.488.829,5.18,5.18,0,0,0,1.769-1.74,9.153,9.153,0,0,0,1.306-4.879c0-.226-.008-.45-.022-.672a1.025,1.025,0,0,1-.537.249A1,1,0,0,1,183.958,342.6Z" transform="translate(-160.108 -279.565)"/>
        <path id="Path_56" data-name="Path 56" class="cls-11" d="M131.652,377.572c0,.041-.007.081-.007.123a1.1,1.1,0,0,0,1.072,1.13c.592,0,1.608-.506,1.608-1.13s-1.016-1.131-1.608-1.131a1.025,1.025,0,0,0-.577.179A1.138,1.138,0,0,0,131.652,377.572Z" transform="translate(-119.534 -307.489)"/>
        <path id="Path_57" data-name="Path 57" class="cls-11" d="M171.612,376.8a1.027,1.027,0,0,0-.577-.179c-.592,0-1.607.506-1.607,1.13s1.015,1.13,1.607,1.13a1.1,1.1,0,0,0,1.072-1.13,1.174,1.174,0,0,0-.007-.122A1.138,1.138,0,0,0,171.612,376.8Z" transform="translate(-150.386 -307.532)"/>
        <path id="Path_58" data-name="Path 58" class="cls-9" d="M157.267,255.929c1.288.293,1.035.132,2.953.661.315-.224.756-.542,1.269-.916,2.212-1.611,5.732-4.216,5.959-4.385l.011-.008,0,0-.015-.009-5.994-3.606h0l-3.771,3.775s-.037.364-.093.929c-.086.872-.214,2.223-.315,3.456C157.273,255.859,157.27,255.894,157.267,255.929Z" transform="translate(-140.456 -202.233)"/>
        <path id="Path_59" data-name="Path 59" class="cls-9" d="M212.871,251.294l-.015.009,0,0,.011.008c.263.194,4.906,3.632,6.869,5.044.388.279.673.481.8.561.87.562,2.7,1.292,2.529-.8-.1-1.257-.236-2.688-.328-3.628-.061-.622-.1-1.031-.1-1.031l-.8-.792-1.4-1.387-1.574-1.591h0Z" transform="translate(-185.848 -202.257)"/>
      </g>
      <path id="Path_60" data-name="Path 60" class="cls-6" d="M148.486,266.251a7.21,7.21,0,0,1,1.348-.129h.05c0-.035.006-.07.009-.106-.031-.783-.1-1.461-.156-2.034-.051-.507-.119-.912-.147-1.235a1.178,1.178,0,0,1,.1-.755c.154-.232.06-.366.607-.362.993-.984,1.524-1.485,1.524-1.485a5.168,5.168,0,0,1-1.265.056,1.98,1.98,0,0,0-1.946.878,3.267,3.267,0,0,0-.367,2.123c.02.286.05.592.084.92C148.392,264.751,148.461,265.444,148.486,266.251Z" transform="translate(-133.072 -212.428)"/>
      <path id="Path_61" data-name="Path 61" class="cls-12" d="M131.784,294.248h.1a.965.965,0,0,1,.2.023,8.712,8.712,0,0,1,5.1,1.7,4.874,4.874,0,0,0-2.708-2.591,8.9,8.9,0,0,0-2.953-.661h-.05a7.179,7.179,0,0,0-1.348.129c-2.694.515-4.384,2.453-4.384,3.294a.285.285,0,0,0,.012.083l.015-.014A8.829,8.829,0,0,1,131.784,294.248Z" transform="translate(-114.72 -239.023)"/>
      <path id="Path_62" data-name="Path 62" class="cls-9" d="M129.418,307.637a7.181,7.181,0,0,0-2.362-4.6c-.061-.053-.123-.1-.185-.154l-.118-.095a8.712,8.712,0,0,0-5.1-1.7.962.962,0,0,0-.2-.023h-.1a8.83,8.83,0,0,0-6.007,1.963l-.015.014a7.186,7.186,0,0,0-2.348,4.591,1.144,1.144,0,0,0,.372,1,1.026,1.026,0,0,0,.538.249.994.994,0,0,0,.379-.021,1.093,1.093,0,0,0,.806-.938c.355-2.832,2.484-4.5,5.864-4.621h.026c3.671-.027,5.993,1.66,6.365,4.63a1.094,1.094,0,0,0,.807.938,1,1,0,0,0,.379.021,1.023,1.023,0,0,0,.537-.249,1.1,1.1,0,0,0,.207-.245A1.156,1.156,0,0,0,129.418,307.637Z" transform="translate(-104.28 -245.836)"/>
    </g>
  </g>
</svg>
