<svg xmlns="http://www.w3.org/2000/svg" viewBox="0 0 75.977 79.598">
  <defs>
    <style>
      .cls-1 {
        fill: #d43d21;
      }

      .cls-2 {
        fill: none;
      }

      .cls-3 {
        fill: #2b3237;
      }

      .cls-4 {
        fill: #e0dcd3;
      }
    </style>
  </defs>
  <g id="icon-examenes" transform="translate(-8.775)">
    <g id="Layer_2_23_" transform="translate(8.775)">
      <g id="Group_6" data-name="Group 6">
        <g id="Group_5" data-name="Group 5" transform="translate(32.215)">
          <path id="Path_32" data-name="Path 32" class="cls-1" d="M181.256,124.395c-.08.012-.159.017-.238.025v13.745a17.655,17.655,0,0,0,5.331-.169v-13.5a2.664,2.664,0,0,1-.45-.095C184,123.81,183.731,124.028,181.256,124.395Z" transform="translate(-177.695 -98.442)"/>
          <path id="Path_33" data-name="Path 33" class="cls-1" d="M170.935,0a6.022,6.022,0,0,0-2.7,11.406v.82l.109,0H173.3c.087,0,.177.007.27.008v-.789A6.023,6.023,0,0,0,170.935,0Z" transform="translate(-164.913)"/>
        </g>
        <path id="Path_34" data-name="Path 34" class="cls-2" d="M208.936,231.042a4.851,4.851,0,0,0,2.047-3.474c0-1.081.291-3.243-4.125-5.211v10.157A13.987,13.987,0,0,0,208.936,231.042Z" transform="translate(-165.988 -176.479)"/>
        <path id="Path_35" data-name="Path 35" class="cls-2" d="M157.757,226.238a4.824,4.824,0,0,0,2.041,3.677,26.234,26.234,0,0,0,2.755,1.738V220.937C157.424,222.948,157.757,225.076,157.757,226.238Z" transform="translate(-127.015 -175.352)"/>
        <path id="Path_36" data-name="Path 36" class="cls-1" d="M181.017,218.142v11.129a4.721,4.721,0,0,0,4.769.035c.184-.091.373-.193.563-.3V218.435c-.225-.1-.458-.2-.709-.3v.019c-1.48-.688-2.378-.534-4.225-.165C181.278,218.04,181.147,218.091,181.017,218.142Z" transform="translate(-145.479 -172.764)"/>
        <path id="Path_37" data-name="Path 37" class="cls-1" d="M180.995,307.719v11.552c0,.039-.006.078-.006.117a2.669,2.669,0,1,0,5.337,0v-11.2q-.444-.345-.94-.671A3.942,3.942,0,0,0,180.995,307.719Z" transform="translate(-145.457 -243.615)"/>
        <path id="Path_38" data-name="Path 38" class="cls-3" d="M90.392,153.514V153.5c.25.1.483.2.709.3,4.416,1.969,4.125,4.13,4.125,5.211a4.851,4.851,0,0,1-2.047,3.474,13.975,13.975,0,0,1-2.078,1.472c-.19.109-.378.211-.563.3a4.722,4.722,0,0,1-4.769-.035,26.28,26.28,0,0,1-2.755-1.739,4.825,4.825,0,0,1-2.041-3.677c0-1.162-.333-3.29,4.8-5.3.13-.051.261-.1.4-.153C88.014,152.98,88.912,152.827,90.392,153.514Zm-4.623-6.081c-.119-.021-.238-.044-.356-.071-2.046-.466-4.05-.877-8.333-2.064-4.1-1.087-8.616-2.844-9.288-3.741a.749.749,0,0,1,.259-.158,6.991,6.991,0,0,1,1.728-.542,40.867,40.867,0,0,1,5.624-.567,41.372,41.372,0,0,1,4.9.052c.487-.029,2.981-.06,3.059-1.956s-1.271-2.034-2.329-2.247a12.225,12.225,0,0,0-3.233-.129c-3.766.284-15.3-.648-16.743,5.414a2.357,2.357,0,0,1-.052.442c.49,5.282,11.454,7.585,19.374,9.152a10.729,10.729,0,0,0-4.695,7.359c-.284,3.3,2.347,6.449,8.462,9.951-4.644,3.276-7.688,6.372-7.43,10.094.376,2.769,2.67,6.393,7.035,8.944.434.254,1.06.226.609-.53-1.094-1.832-2.991-5.287-3.156-7.465-.226-1.579.542-3.824,3.75-6.491a6.494,6.494,0,0,1,.811-.652,3.942,3.942,0,0,1,4.391-.2q.5.324.94.671c2.9,2.261,4.095,5.112,3.884,6.675-.163,2.165-2.014,5.607-3.136,7.432-.376.611.011.92.607.554,4.32-2.651,6.641-6.16,7.017-8.935.259-3.721-2.786-6.817-7.41-10.094,6.1-3.5,8.727-6.649,8.442-9.951a10.84,10.84,0,0,0-4.695-7.359c7.92-1.567,18.884-3.87,19.374-9.152a2.353,2.353,0,0,1-.052-.442c-1.445-6.063-12.977-5.13-16.742-5.414-2.27-.029-1.988-.043-3.051-.039a2.278,2.278,0,0,0-2.471,2.257c-.034,1.694,1.92,2.131,3.019,2.112a32.019,32.019,0,0,1,4.9-.026,36.758,36.758,0,0,1,5.6.542,7.253,7.253,0,0,1,1.754.542,1.143,1.143,0,0,1,.259.158c-.671.9-5.186,2.654-9.288,3.741-3.763,1.043-6.886,1.745-7.718,1.925l-.294.04A17.648,17.648,0,0,1,85.769,147.433Z" transform="translate(-50.231 -107.917)"/>
        <path id="Path_39" data-name="Path 39" class="cls-4" d="M81.982,37.691C72.06,35.852,64.218,26.843,62.016,25.048c-2.5-2.042-4.231-1.574-6.733,2.912a6.033,6.033,0,0,1-5.638,3.23c-.092,0-.183,0-.27-.008H44.421l-.109,0a6.059,6.059,0,0,1-5.8-3.226c-2.5-4.486-4.256-4.953-6.733-2.912-2.238,1.823-10.3,10.993-20.437,12.714-2.816.478-3.317,1.809-1.5,3.1A8.074,8.074,0,0,0,16.2,42.1s3.483,3.612,9.133,1.084c0,0,2.941,2.654,7.636.229a6.571,6.571,0,0,0,7.172.365,6.4,6.4,0,0,0,4.174,1.16c.079-.008.158-.013.238-.025,2.475-.367,2.744-.585,4.643,0a2.658,2.658,0,0,0,.45.095c1.83.235,4.013-1.232,4.013-1.232,3.69,2.29,7.172-.365,7.172-.365,4.7,2.425,7.61-.229,7.61-.229C74.115,45.712,77.6,42.1,77.6,42.1a8.276,8.276,0,0,0,5.564-.747C85.552,40.062,85.315,38.308,81.982,37.691Z" transform="translate(-8.775 -18.96)"/>
      </g>
    </g>
  </g>
</svg>
